<mxfile host="Electron" modified="2023-08-17T13:28:23.577Z" agent="Mozilla/5.0 (Windows NT 10.0; Win64; x64) AppleWebKit/537.36 (KHTML, like Gecko) draw.io/21.6.8 Chrome/114.0.5735.289 Electron/25.5.0 Safari/537.36" etag="ZRCIv6-tg_rimsJhJUep" version="21.6.8" type="device" pages="8">
  <diagram name="15.66" id="tRK5qbNT6Z9Z9Skx209G">
    <mxGraphModel dx="880" dy="545" grid="1" gridSize="10" guides="1" tooltips="1" connect="1" arrows="1" fold="1" page="1" pageScale="1" pageWidth="1169" pageHeight="827" math="0" shadow="0">
      <root>
        <mxCell id="0" />
        <mxCell id="1" parent="0" />
        <mxCell id="05Re9EG3piOdm5jtCWXc-1" value="Partition Name" style="swimlane;horizontal=0;whiteSpace=wrap;html=1;swimlaneFillColor=none;gradientColor=none;fillColor=none;fontStyle=0" vertex="1" parent="1">
          <mxGeometry x="10" width="410" height="110" as="geometry">
            <mxRectangle width="40" height="120" as="alternateBounds" />
          </mxGeometry>
        </mxCell>
        <mxCell id="05Re9EG3piOdm5jtCWXc-2" value="&lt;i&gt;a) Partition using a swimlane notation&lt;/i&gt;" style="text;html=1;align=center;verticalAlign=middle;resizable=0;points=[];autosize=1;strokeColor=none;fillColor=none;fontSize=12;fontFamily=Times New Roman;fontColor=default;" vertex="1" parent="1">
          <mxGeometry x="10" y="110" width="210" height="30" as="geometry" />
        </mxCell>
        <mxCell id="05Re9EG3piOdm5jtCWXc-3" value="Partition Name" style="swimlane;childLayout=stackLayout;resizeParent=1;resizeParentMax=0;horizontal=0;startSize=20;horizontalStack=0;html=1;fontStyle=0" vertex="1" parent="1">
          <mxGeometry x="30" y="160" width="400" height="240" as="geometry" />
        </mxCell>
        <mxCell id="05Re9EG3piOdm5jtCWXc-5" value="sub partition&lt;br&gt;name" style="swimlane;startSize=30;horizontal=0;html=1;fontStyle=0" vertex="1" parent="05Re9EG3piOdm5jtCWXc-3">
          <mxGeometry x="20" width="380" height="120" as="geometry" />
        </mxCell>
        <mxCell id="05Re9EG3piOdm5jtCWXc-4" value="sub partition&lt;br&gt;name" style="swimlane;startSize=30;horizontal=0;html=1;fontStyle=0" vertex="1" parent="05Re9EG3piOdm5jtCWXc-3">
          <mxGeometry x="20" y="120" width="380" height="120" as="geometry" />
        </mxCell>
        <mxCell id="05Re9EG3piOdm5jtCWXc-7" value="Dimension name" style="text;html=1;align=center;verticalAlign=bottom;resizable=0;points=[];autosize=1;strokeColor=none;fillColor=none;fontSize=12;rotation=270;" vertex="1" parent="1">
          <mxGeometry x="-40" y="265" width="110" height="30" as="geometry" />
        </mxCell>
        <mxCell id="05Re9EG3piOdm5jtCWXc-8" value="&lt;i&gt;b) Partition using a hierarchical swimlane notation&lt;/i&gt;" style="text;html=1;align=center;verticalAlign=middle;resizable=0;points=[];autosize=1;strokeColor=none;fillColor=none;fontSize=12;fontFamily=Times New Roman;fontColor=default;" vertex="1" parent="1">
          <mxGeometry x="10" y="400" width="270" height="30" as="geometry" />
        </mxCell>
        <mxCell id="05Re9EG3piOdm5jtCWXc-61" value="Dimension name" style="shape=table;html=1;whiteSpace=wrap;startSize=20;container=1;collapsible=0;childLayout=tableLayout;fillColor=none;swimlaneFillColor=none;strokeColor=none;" vertex="1" parent="1">
          <mxGeometry x="520" width="240" height="250" as="geometry" />
        </mxCell>
        <mxCell id="05Re9EG3piOdm5jtCWXc-62" value="" style="shape=partialRectangle;html=1;whiteSpace=wrap;collapsible=0;dropTarget=0;pointerEvents=0;fillColor=none;top=0;left=0;bottom=0;right=0;points=[[0,0.5],[1,0.5]];portConstraint=eastwest;strokeColor=none;" vertex="1" parent="05Re9EG3piOdm5jtCWXc-61">
          <mxGeometry y="20" width="240" height="49" as="geometry" />
        </mxCell>
        <mxCell id="05Re9EG3piOdm5jtCWXc-63" value="" style="shape=partialRectangle;html=1;whiteSpace=wrap;connectable=0;fillColor=none;top=1;left=1;bottom=1;right=1;overflow=hidden;strokeColor=none;" vertex="1" parent="05Re9EG3piOdm5jtCWXc-62">
          <mxGeometry width="40" height="49" as="geometry">
            <mxRectangle width="40" height="49" as="alternateBounds" />
          </mxGeometry>
        </mxCell>
        <mxCell id="05Re9EG3piOdm5jtCWXc-64" value="Partition&lt;br&gt;Name-3" style="shape=partialRectangle;html=1;whiteSpace=wrap;connectable=0;fillColor=none;top=1;left=1;bottom=1;right=1;overflow=hidden;" vertex="1" parent="05Re9EG3piOdm5jtCWXc-62">
          <mxGeometry x="40" width="100" height="49" as="geometry">
            <mxRectangle width="100" height="49" as="alternateBounds" />
          </mxGeometry>
        </mxCell>
        <mxCell id="05Re9EG3piOdm5jtCWXc-65" value="Partition&lt;br&gt;Name-4" style="shape=partialRectangle;html=1;whiteSpace=wrap;connectable=0;fillColor=none;top=1;left=1;bottom=1;right=1;overflow=hidden;" vertex="1" parent="05Re9EG3piOdm5jtCWXc-62">
          <mxGeometry x="140" width="100" height="49" as="geometry">
            <mxRectangle width="100" height="49" as="alternateBounds" />
          </mxGeometry>
        </mxCell>
        <mxCell id="05Re9EG3piOdm5jtCWXc-66" value="" style="shape=partialRectangle;html=1;whiteSpace=wrap;collapsible=0;dropTarget=0;pointerEvents=0;fillColor=none;top=1;left=1;bottom=1;right=1;points=[[0,0.5],[1,0.5]];portConstraint=eastwest;" vertex="1" parent="05Re9EG3piOdm5jtCWXc-61">
          <mxGeometry y="69" width="240" height="80" as="geometry" />
        </mxCell>
        <mxCell id="05Re9EG3piOdm5jtCWXc-67" value="Partition&lt;br&gt;Name-2" style="shape=partialRectangle;html=1;whiteSpace=wrap;connectable=0;fillColor=none;top=1;left=1;bottom=1;right=1;overflow=hidden;horizontal=0;" vertex="1" parent="05Re9EG3piOdm5jtCWXc-66">
          <mxGeometry width="40" height="80" as="geometry">
            <mxRectangle width="40" height="80" as="alternateBounds" />
          </mxGeometry>
        </mxCell>
        <mxCell id="05Re9EG3piOdm5jtCWXc-68" value="" style="shape=partialRectangle;html=1;whiteSpace=wrap;connectable=0;fillColor=none;top=1;left=1;bottom=1;right=1;overflow=hidden;" vertex="1" parent="05Re9EG3piOdm5jtCWXc-66">
          <mxGeometry x="40" width="100" height="80" as="geometry">
            <mxRectangle width="100" height="80" as="alternateBounds" />
          </mxGeometry>
        </mxCell>
        <mxCell id="05Re9EG3piOdm5jtCWXc-69" value="" style="shape=partialRectangle;html=1;whiteSpace=wrap;connectable=0;fillColor=none;top=1;left=1;bottom=1;right=1;overflow=hidden;" vertex="1" parent="05Re9EG3piOdm5jtCWXc-66">
          <mxGeometry x="140" width="100" height="80" as="geometry">
            <mxRectangle width="100" height="80" as="alternateBounds" />
          </mxGeometry>
        </mxCell>
        <mxCell id="05Re9EG3piOdm5jtCWXc-70" value="" style="shape=partialRectangle;html=1;whiteSpace=wrap;collapsible=0;dropTarget=0;pointerEvents=0;fillColor=none;top=1;left=1;bottom=1;right=1;points=[[0,0.5],[1,0.5]];portConstraint=eastwest;" vertex="1" parent="05Re9EG3piOdm5jtCWXc-61">
          <mxGeometry y="149" width="240" height="101" as="geometry" />
        </mxCell>
        <mxCell id="05Re9EG3piOdm5jtCWXc-71" value="Partition&lt;br&gt;Name-1" style="shape=partialRectangle;html=1;whiteSpace=wrap;connectable=0;fillColor=none;top=1;left=1;bottom=1;right=1;overflow=hidden;horizontal=0;" vertex="1" parent="05Re9EG3piOdm5jtCWXc-70">
          <mxGeometry width="40" height="101" as="geometry">
            <mxRectangle width="40" height="101" as="alternateBounds" />
          </mxGeometry>
        </mxCell>
        <mxCell id="05Re9EG3piOdm5jtCWXc-72" value="" style="shape=partialRectangle;html=1;whiteSpace=wrap;connectable=0;fillColor=none;top=1;left=1;bottom=1;right=1;overflow=hidden;" vertex="1" parent="05Re9EG3piOdm5jtCWXc-70">
          <mxGeometry x="40" width="100" height="101" as="geometry">
            <mxRectangle width="100" height="101" as="alternateBounds" />
          </mxGeometry>
        </mxCell>
        <mxCell id="05Re9EG3piOdm5jtCWXc-73" value="" style="shape=partialRectangle;html=1;whiteSpace=wrap;connectable=0;fillColor=none;top=1;left=1;bottom=1;right=1;overflow=hidden;" vertex="1" parent="05Re9EG3piOdm5jtCWXc-70">
          <mxGeometry x="140" width="100" height="101" as="geometry">
            <mxRectangle width="100" height="101" as="alternateBounds" />
          </mxGeometry>
        </mxCell>
        <mxCell id="05Re9EG3piOdm5jtCWXc-75" value="Dimension name" style="text;html=1;align=center;verticalAlign=bottom;resizable=0;points=[];autosize=1;strokeColor=none;fillColor=none;fontSize=12;rotation=270;" vertex="1" parent="1">
          <mxGeometry x="450" y="110" width="110" height="30" as="geometry" />
        </mxCell>
        <mxCell id="05Re9EG3piOdm5jtCWXc-76" value="&lt;i&gt;c) Partition using a multidimensional&lt;br&gt;hierarchical swimlane notation&lt;br&gt;&lt;/i&gt;" style="text;html=1;align=center;verticalAlign=middle;resizable=0;points=[];autosize=1;strokeColor=none;fillColor=none;fontSize=12;fontFamily=Times New Roman;fontColor=default;" vertex="1" parent="1">
          <mxGeometry x="530" y="250" width="200" height="40" as="geometry" />
        </mxCell>
        <mxCell id="05Re9EG3piOdm5jtCWXc-77" value="&lt;b&gt;Figure 15.66 ActivityPartition notations&lt;/b&gt;" style="text;html=1;align=left;verticalAlign=middle;resizable=0;points=[];autosize=1;strokeColor=none;fillColor=none;fontSize=11;fontFamily=Helvetica;fontColor=default;" vertex="1" parent="1">
          <mxGeometry y="440" width="230" height="30" as="geometry" />
        </mxCell>
      </root>
    </mxGraphModel>
  </diagram>
  <diagram id="o89mb640t2fAp0hoKsYe" name="15.67">
    <mxGraphModel dx="880" dy="545" grid="1" gridSize="10" guides="1" tooltips="1" connect="1" arrows="1" fold="1" page="1" pageScale="1" pageWidth="1169" pageHeight="827" math="0" shadow="0">
      <root>
        <mxCell id="0" />
        <mxCell id="1" parent="0" />
        <mxCell id="pUl9LNR2vancLQ_LxKEZ-1" value="(Partition Name)&lt;br&gt;action" style="html=1;align=center;verticalAlign=middle;rounded=1;absoluteArcSize=1;arcSize=10;dashed=0;whiteSpace=wrap;" vertex="1" parent="1">
          <mxGeometry x="65" width="120" height="40" as="geometry" />
        </mxCell>
        <mxCell id="pUl9LNR2vancLQ_LxKEZ-2" value="(Name1, Name2)&lt;br&gt;action" style="html=1;align=center;verticalAlign=middle;rounded=1;absoluteArcSize=1;arcSize=10;dashed=0;whiteSpace=wrap;" vertex="1" parent="1">
          <mxGeometry x="65" y="50" width="120" height="40" as="geometry" />
        </mxCell>
        <mxCell id="pUl9LNR2vancLQ_LxKEZ-3" value="(Name::Subname)&lt;br&gt;action" style="html=1;align=center;verticalAlign=middle;rounded=1;absoluteArcSize=1;arcSize=10;dashed=0;whiteSpace=wrap;" vertex="1" parent="1">
          <mxGeometry x="65" y="100" width="120" height="40" as="geometry" />
        </mxCell>
        <mxCell id="pUl9LNR2vancLQ_LxKEZ-4" value="&lt;i&gt;a) Partition notated on a specific activity node&lt;/i&gt;" style="text;html=1;align=center;verticalAlign=middle;resizable=0;points=[];autosize=1;strokeColor=none;fillColor=none;fontSize=12;fontFamily=Times New Roman;fontColor=default;" vertex="1" parent="1">
          <mxGeometry y="150" width="250" height="30" as="geometry" />
        </mxCell>
        <mxCell id="pUl9LNR2vancLQ_LxKEZ-5" value="&lt;span style=&quot;font-weight: normal;&quot;&gt;Partition Name&lt;/span&gt;" style="swimlane;whiteSpace=wrap;html=1;" vertex="1" parent="1">
          <mxGeometry x="280" y="30" width="100" height="80" as="geometry" />
        </mxCell>
        <mxCell id="pUl9LNR2vancLQ_LxKEZ-6" value="«external»" style="text;html=1;align=center;verticalAlign=middle;resizable=0;points=[];autosize=1;strokeColor=none;fillColor=none;" vertex="1" parent="1">
          <mxGeometry x="290" width="80" height="30" as="geometry" />
        </mxCell>
        <mxCell id="pUl9LNR2vancLQ_LxKEZ-7" value="«external»&lt;br&gt;(Partition Name)&lt;br&gt;action" style="html=1;align=center;verticalAlign=middle;rounded=1;absoluteArcSize=1;arcSize=10;dashed=0;whiteSpace=wrap;" vertex="1" parent="1">
          <mxGeometry x="400" y="40" width="120" height="60" as="geometry" />
        </mxCell>
        <mxCell id="pUl9LNR2vancLQ_LxKEZ-8" value="&lt;i&gt;b) Partition notated to occur outside&lt;br&gt;the primary concern of the model&lt;br&gt;&lt;/i&gt;" style="text;html=1;align=center;verticalAlign=middle;resizable=0;points=[];autosize=1;strokeColor=none;fillColor=none;fontSize=12;fontFamily=Times New Roman;fontColor=default;" vertex="1" parent="1">
          <mxGeometry x="305" y="145" width="200" height="40" as="geometry" />
        </mxCell>
        <mxCell id="pUl9LNR2vancLQ_LxKEZ-9" value="&lt;b&gt;Figure 15.67 ActivityPartition notations&lt;/b&gt;" style="text;html=1;align=left;verticalAlign=middle;resizable=0;points=[];autosize=1;strokeColor=none;fillColor=none;fontSize=11;fontFamily=Helvetica;fontColor=default;" vertex="1" parent="1">
          <mxGeometry y="200" width="230" height="30" as="geometry" />
        </mxCell>
      </root>
    </mxGraphModel>
  </diagram>
  <diagram id="13FYtN_mG-5HBuyCLn6k" name="15.68">
    <mxGraphModel dx="880" dy="545" grid="1" gridSize="10" guides="1" tooltips="1" connect="1" arrows="1" fold="1" page="1" pageScale="1" pageWidth="1169" pageHeight="827" math="0" shadow="0">
      <root>
        <mxCell id="0" />
        <mxCell id="1" parent="0" />
        <mxCell id="7Wqsmk1NcSkkMQqqh_LX-1" value="" style="html=1;align=center;verticalAlign=top;rounded=1;absoluteArcSize=1;arcSize=20;dashed=1;whiteSpace=wrap;fillColor=none;" vertex="1" parent="1">
          <mxGeometry width="140" height="60" as="geometry" />
        </mxCell>
        <mxCell id="7Wqsmk1NcSkkMQqqh_LX-3" value="" style="shape=mxgraph.lean_mapping.electronic_info_flow_edge;html=1;rounded=0;arcSize=20;fillOpacity=100;strokeOpacity=100;" edge="1" parent="1">
          <mxGeometry width="160" relative="1" as="geometry">
            <mxPoint x="120" y="29.5" as="sourcePoint" />
            <mxPoint x="280" y="29.5" as="targetPoint" />
          </mxGeometry>
        </mxCell>
        <mxCell id="7Wqsmk1NcSkkMQqqh_LX-4" value="&lt;b&gt;Figure 15.68 InterruptableActivityRegion&lt;/b&gt;" style="text;html=1;align=left;verticalAlign=middle;resizable=0;points=[];autosize=1;strokeColor=none;fillColor=none;fontSize=11;fontFamily=Helvetica;fontColor=default;" vertex="1" parent="1">
          <mxGeometry y="60" width="240" height="30" as="geometry" />
        </mxCell>
      </root>
    </mxGraphModel>
  </diagram>
  <diagram name="15.69" id="8dUJNguWcuzMqJ6tJfRd">
    <mxGraphModel dx="880" dy="545" grid="1" gridSize="10" guides="1" tooltips="1" connect="1" arrows="1" fold="1" page="1" pageScale="1" pageWidth="1169" pageHeight="827" math="0" shadow="0">
      <root>
        <mxCell id="DUa3dobXWvYO5lzepfsK-0" />
        <mxCell id="DUa3dobXWvYO5lzepfsK-1" parent="DUa3dobXWvYO5lzepfsK-0" />
        <mxCell id="DUa3dobXWvYO5lzepfsK-2" value="" style="html=1;align=center;verticalAlign=top;rounded=1;absoluteArcSize=1;arcSize=20;dashed=1;whiteSpace=wrap;fillColor=none;" vertex="1" parent="DUa3dobXWvYO5lzepfsK-1">
          <mxGeometry width="140" height="60" as="geometry" />
        </mxCell>
        <mxCell id="DUa3dobXWvYO5lzepfsK-4" value="&lt;b&gt;Figure 15.69 InterruptableActivityRegion alternative notation&lt;/b&gt;" style="text;html=1;align=left;verticalAlign=middle;resizable=0;points=[];autosize=1;strokeColor=none;fillColor=none;fontSize=11;fontFamily=Helvetica;fontColor=default;" vertex="1" parent="DUa3dobXWvYO5lzepfsK-1">
          <mxGeometry y="60" width="340" height="30" as="geometry" />
        </mxCell>
        <mxCell id="H0N9ZkCqkLQI2fy3Lb4v-0" value="" style="endArrow=open;html=1;rounded=0;align=center;verticalAlign=top;endFill=0;labelBackgroundColor=none;endSize=12;" edge="1" parent="DUa3dobXWvYO5lzepfsK-1">
          <mxGeometry relative="1" as="geometry">
            <mxPoint x="125" y="30" as="sourcePoint" />
            <mxPoint x="280" y="30" as="targetPoint" />
          </mxGeometry>
        </mxCell>
        <mxCell id="H0N9ZkCqkLQI2fy3Lb4v-1" value="" style="shape=mxgraph.lean_mapping.electronic_info_flow_edge;html=1;rounded=0;" edge="1" parent="DUa3dobXWvYO5lzepfsK-1">
          <mxGeometry relative="1" as="geometry">
            <mxPoint x="185" y="17" as="sourcePoint" />
            <mxPoint x="225" y="37" as="targetPoint" />
          </mxGeometry>
        </mxCell>
      </root>
    </mxGraphModel>
  </diagram>
  <diagram id="AUU7fr7Eae8G9ZBbUKA8" name="15.70">
    <mxGraphModel dx="880" dy="545" grid="1" gridSize="10" guides="1" tooltips="1" connect="1" arrows="1" fold="1" page="1" pageScale="1" pageWidth="1169" pageHeight="827" math="0" shadow="0">
      <root>
        <mxCell id="0" />
        <mxCell id="1" parent="0" />
        <mxCell id="hUd4Ygy3gJ5FfVY44Bzg-1" style="edgeStyle=orthogonalEdgeStyle;shape=connector;rounded=0;orthogonalLoop=1;jettySize=auto;html=1;entryX=0;entryY=0.5;entryDx=0;entryDy=0;labelBackgroundColor=default;strokeColor=default;fontFamily=Helvetica;fontSize=11;fontColor=default;endArrow=openThin;endFill=0;endSize=12;" edge="1" parent="1" source="hUd4Ygy3gJ5FfVY44Bzg-2" target="hUd4Ygy3gJ5FfVY44Bzg-27">
          <mxGeometry relative="1" as="geometry" />
        </mxCell>
        <mxCell id="hUd4Ygy3gJ5FfVY44Bzg-2" value="Receive&lt;br&gt;Order" style="html=1;align=center;verticalAlign=top;rounded=1;absoluteArcSize=1;arcSize=10;dashed=0;whiteSpace=wrap;" vertex="1" parent="1">
          <mxGeometry x="98" y="70" width="70" height="40" as="geometry" />
        </mxCell>
        <mxCell id="hUd4Ygy3gJ5FfVY44Bzg-3" style="rounded=0;orthogonalLoop=1;jettySize=auto;html=1;entryX=0;entryY=0.5;entryDx=0;entryDy=0;endSize=12;endArrow=openThin;endFill=0;" edge="1" parent="1" source="hUd4Ygy3gJ5FfVY44Bzg-4" target="hUd4Ygy3gJ5FfVY44Bzg-2">
          <mxGeometry relative="1" as="geometry" />
        </mxCell>
        <mxCell id="hUd4Ygy3gJ5FfVY44Bzg-4" value="" style="ellipse;fillColor=strokeColor;html=1;" vertex="1" parent="1">
          <mxGeometry x="56" y="82" width="15" height="15" as="geometry" />
        </mxCell>
        <mxCell id="hUd4Ygy3gJ5FfVY44Bzg-5" value="Fill&lt;br&gt;Order" style="html=1;align=center;verticalAlign=top;rounded=1;absoluteArcSize=1;arcSize=10;dashed=0;whiteSpace=wrap;" vertex="1" parent="1">
          <mxGeometry x="278" y="70" width="50" height="40" as="geometry" />
        </mxCell>
        <mxCell id="hUd4Ygy3gJ5FfVY44Bzg-6" style="edgeStyle=orthogonalEdgeStyle;shape=connector;rounded=0;orthogonalLoop=1;jettySize=auto;html=1;exitX=1;exitY=0.25;exitDx=0;exitDy=0;entryX=0.5;entryY=0.375;entryDx=0;entryDy=0;entryPerimeter=0;labelBackgroundColor=default;strokeColor=default;fontFamily=Helvetica;fontSize=11;fontColor=default;endArrow=openThin;endFill=0;endSize=12;" edge="1" parent="1" source="hUd4Ygy3gJ5FfVY44Bzg-7" target="hUd4Ygy3gJ5FfVY44Bzg-22">
          <mxGeometry relative="1" as="geometry" />
        </mxCell>
        <mxCell id="hUd4Ygy3gJ5FfVY44Bzg-7" value="Ship&lt;br&gt;Order" style="html=1;align=center;verticalAlign=top;rounded=1;absoluteArcSize=1;arcSize=10;dashed=0;whiteSpace=wrap;" vertex="1" parent="1">
          <mxGeometry x="457" y="70" width="50" height="40" as="geometry" />
        </mxCell>
        <mxCell id="hUd4Ygy3gJ5FfVY44Bzg-8" style="shape=connector;rounded=0;orthogonalLoop=1;jettySize=auto;html=1;entryX=0.5;entryY=0;entryDx=0;entryDy=0;labelBackgroundColor=default;strokeColor=default;fontFamily=Helvetica;fontSize=11;fontColor=default;endArrow=openThin;endFill=0;endSize=12;exitX=0.25;exitY=1;exitDx=0;exitDy=0;" edge="1" parent="1" source="hUd4Ygy3gJ5FfVY44Bzg-9" target="hUd4Ygy3gJ5FfVY44Bzg-16">
          <mxGeometry relative="1" as="geometry" />
        </mxCell>
        <mxCell id="hUd4Ygy3gJ5FfVY44Bzg-9" value="Close&lt;br&gt;Order" style="html=1;align=center;verticalAlign=top;rounded=1;absoluteArcSize=1;arcSize=10;dashed=0;whiteSpace=wrap;" vertex="1" parent="1">
          <mxGeometry x="678" y="70" width="50" height="40" as="geometry" />
        </mxCell>
        <mxCell id="hUd4Ygy3gJ5FfVY44Bzg-10" style="shape=connector;rounded=0;orthogonalLoop=1;jettySize=auto;html=1;entryX=0;entryY=0.5;entryDx=0;entryDy=0;labelBackgroundColor=default;strokeColor=default;fontFamily=Helvetica;fontSize=11;fontColor=default;endArrow=openThin;endFill=0;endSize=12;exitX=0.5;exitY=1;exitDx=0;exitDy=0;" edge="1" parent="1" source="hUd4Ygy3gJ5FfVY44Bzg-11" target="hUd4Ygy3gJ5FfVY44Bzg-31">
          <mxGeometry relative="1" as="geometry" />
        </mxCell>
        <mxCell id="hUd4Ygy3gJ5FfVY44Bzg-11" value="Send&lt;br&gt;Invoice" style="html=1;align=center;verticalAlign=top;rounded=1;absoluteArcSize=1;arcSize=10;dashed=0;whiteSpace=wrap;" vertex="1" parent="1">
          <mxGeometry x="148" y="190" width="60" height="40" as="geometry" />
        </mxCell>
        <mxCell id="hUd4Ygy3gJ5FfVY44Bzg-12" style="shape=connector;rounded=0;orthogonalLoop=1;jettySize=auto;html=1;entryX=0.5;entryY=1;entryDx=0;entryDy=0;labelBackgroundColor=default;strokeColor=default;fontFamily=Helvetica;fontSize=11;fontColor=default;endArrow=openThin;endFill=0;endSize=12;exitX=1;exitY=0.5;exitDx=0;exitDy=0;" edge="1" parent="1" source="hUd4Ygy3gJ5FfVY44Bzg-13" target="hUd4Ygy3gJ5FfVY44Bzg-15">
          <mxGeometry relative="1" as="geometry" />
        </mxCell>
        <mxCell id="hUd4Ygy3gJ5FfVY44Bzg-13" value="Make&lt;br&gt;Payment" style="html=1;align=center;verticalAlign=top;rounded=1;absoluteArcSize=1;arcSize=10;dashed=0;whiteSpace=wrap;" vertex="1" parent="1">
          <mxGeometry x="318" y="270" width="70" height="40" as="geometry" />
        </mxCell>
        <mxCell id="hUd4Ygy3gJ5FfVY44Bzg-14" style="edgeStyle=orthogonalEdgeStyle;shape=connector;rounded=0;orthogonalLoop=1;jettySize=auto;html=1;entryX=0;entryY=0.763;entryDx=0;entryDy=0;entryPerimeter=0;labelBackgroundColor=default;strokeColor=default;fontFamily=Helvetica;fontSize=11;fontColor=default;endArrow=openThin;endFill=0;endSize=12;" edge="1" parent="1">
          <mxGeometry relative="1" as="geometry">
            <Array as="points">
              <mxPoint x="548" y="209" />
              <mxPoint x="548" y="110" />
            </Array>
            <mxPoint x="508" y="209" as="sourcePoint" />
            <mxPoint x="568" y="110.03999999999996" as="targetPoint" />
          </mxGeometry>
        </mxCell>
        <mxCell id="hUd4Ygy3gJ5FfVY44Bzg-15" value="Accept&lt;br&gt;Payment" style="html=1;align=center;verticalAlign=top;rounded=1;absoluteArcSize=1;arcSize=10;dashed=0;whiteSpace=wrap;" vertex="1" parent="1">
          <mxGeometry x="438" y="190" width="70" height="40" as="geometry" />
        </mxCell>
        <mxCell id="hUd4Ygy3gJ5FfVY44Bzg-16" value="" style="ellipse;html=1;shape=endState;fillColor=strokeColor;fontFamily=Helvetica;fontSize=11;fontColor=default;" vertex="1" parent="1">
          <mxGeometry x="712" y="123" width="20" height="20" as="geometry" />
        </mxCell>
        <mxCell id="hUd4Ygy3gJ5FfVY44Bzg-17" style="edgeStyle=orthogonalEdgeStyle;shape=connector;rounded=0;orthogonalLoop=1;jettySize=auto;html=1;labelBackgroundColor=default;strokeColor=default;fontFamily=Helvetica;fontSize=11;fontColor=default;endArrow=openThin;endFill=0;endSize=12;exitX=1;exitY=0.5;exitDx=0;exitDy=0;" edge="1" parent="1" source="hUd4Ygy3gJ5FfVY44Bzg-5" target="hUd4Ygy3gJ5FfVY44Bzg-20">
          <mxGeometry relative="1" as="geometry" />
        </mxCell>
        <mxCell id="hUd4Ygy3gJ5FfVY44Bzg-18" style="edgeStyle=orthogonalEdgeStyle;shape=connector;rounded=0;orthogonalLoop=1;jettySize=auto;html=1;entryX=0;entryY=0.25;entryDx=0;entryDy=0;labelBackgroundColor=default;strokeColor=default;fontFamily=Helvetica;fontSize=11;fontColor=default;endArrow=openThin;endFill=0;endSize=12;" edge="1" parent="1" target="hUd4Ygy3gJ5FfVY44Bzg-7">
          <mxGeometry relative="1" as="geometry">
            <mxPoint x="403" y="80" as="sourcePoint" />
            <mxPoint x="478" y="80" as="targetPoint" />
          </mxGeometry>
        </mxCell>
        <mxCell id="hUd4Ygy3gJ5FfVY44Bzg-19" style="edgeStyle=orthogonalEdgeStyle;shape=connector;rounded=0;orthogonalLoop=1;jettySize=auto;html=1;entryX=0;entryY=0.5;entryDx=0;entryDy=0;labelBackgroundColor=default;strokeColor=default;fontFamily=Helvetica;fontSize=11;fontColor=default;endArrow=openThin;endFill=0;endSize=12;" edge="1" parent="1" source="hUd4Ygy3gJ5FfVY44Bzg-20" target="hUd4Ygy3gJ5FfVY44Bzg-11">
          <mxGeometry relative="1" as="geometry">
            <Array as="points">
              <mxPoint x="418" y="110" />
              <mxPoint x="418" y="160" />
              <mxPoint x="118" y="160" />
              <mxPoint x="118" y="210" />
            </Array>
          </mxGeometry>
        </mxCell>
        <mxCell id="hUd4Ygy3gJ5FfVY44Bzg-20" value="" style="html=1;points=[];perimeter=orthogonalPerimeter;fillColor=strokeColor;fontFamily=Helvetica;fontSize=11;fontColor=default;" vertex="1" parent="1">
          <mxGeometry x="398" y="65" width="5" height="50" as="geometry" />
        </mxCell>
        <mxCell id="hUd4Ygy3gJ5FfVY44Bzg-21" style="edgeStyle=orthogonalEdgeStyle;shape=connector;rounded=0;orthogonalLoop=1;jettySize=auto;html=1;entryX=0;entryY=0.5;entryDx=0;entryDy=0;labelBackgroundColor=default;strokeColor=default;fontFamily=Helvetica;fontSize=11;fontColor=default;endArrow=openThin;endFill=0;endSize=12;" edge="1" parent="1" source="hUd4Ygy3gJ5FfVY44Bzg-22" target="hUd4Ygy3gJ5FfVY44Bzg-29">
          <mxGeometry relative="1" as="geometry" />
        </mxCell>
        <mxCell id="hUd4Ygy3gJ5FfVY44Bzg-22" value="" style="html=1;points=[];perimeter=orthogonalPerimeter;fillColor=strokeColor;fontFamily=Helvetica;fontSize=11;fontColor=default;" vertex="1" parent="1">
          <mxGeometry x="568" y="50" width="5" height="80" as="geometry" />
        </mxCell>
        <mxCell id="hUd4Ygy3gJ5FfVY44Bzg-23" style="edgeStyle=orthogonalEdgeStyle;shape=connector;rounded=0;orthogonalLoop=1;jettySize=auto;html=1;entryX=0;entryY=0.5;entryDx=0;entryDy=0;labelBackgroundColor=default;strokeColor=default;fontFamily=Helvetica;fontSize=11;fontColor=default;endArrow=openThin;endFill=0;endSize=12;" edge="1" parent="1" source="hUd4Ygy3gJ5FfVY44Bzg-27" target="hUd4Ygy3gJ5FfVY44Bzg-5">
          <mxGeometry relative="1" as="geometry" />
        </mxCell>
        <mxCell id="hUd4Ygy3gJ5FfVY44Bzg-24" value="[order&lt;br&gt;&lt;div style=&quot;&quot;&gt;accepted]&lt;/div&gt;" style="edgeLabel;html=1;align=left;verticalAlign=middle;resizable=0;points=[];fontSize=11;fontFamily=Helvetica;fontColor=default;labelBackgroundColor=none;" vertex="1" connectable="0" parent="hUd4Ygy3gJ5FfVY44Bzg-23">
          <mxGeometry x="-0.3333" y="-3" relative="1" as="geometry">
            <mxPoint x="-20" y="20" as="offset" />
          </mxGeometry>
        </mxCell>
        <mxCell id="hUd4Ygy3gJ5FfVY44Bzg-25" style="edgeStyle=orthogonalEdgeStyle;shape=connector;rounded=0;orthogonalLoop=1;jettySize=auto;html=1;entryX=0.5;entryY=0;entryDx=0;entryDy=0;labelBackgroundColor=default;strokeColor=default;fontFamily=Helvetica;fontSize=11;fontColor=default;endArrow=openThin;endFill=0;endSize=12;" edge="1" parent="1" source="hUd4Ygy3gJ5FfVY44Bzg-27" target="hUd4Ygy3gJ5FfVY44Bzg-29">
          <mxGeometry relative="1" as="geometry">
            <Array as="points">
              <mxPoint x="208" y="30" />
              <mxPoint x="628" y="30" />
            </Array>
          </mxGeometry>
        </mxCell>
        <mxCell id="hUd4Ygy3gJ5FfVY44Bzg-27" value="" style="rhombus;fontFamily=Helvetica;fontSize=11;fontColor=default;" vertex="1" parent="1">
          <mxGeometry x="198" y="75" width="20" height="30" as="geometry" />
        </mxCell>
        <mxCell id="hUd4Ygy3gJ5FfVY44Bzg-28" style="edgeStyle=orthogonalEdgeStyle;shape=connector;rounded=0;orthogonalLoop=1;jettySize=auto;html=1;exitX=1;exitY=0.5;exitDx=0;exitDy=0;labelBackgroundColor=default;strokeColor=default;fontFamily=Helvetica;fontSize=11;fontColor=default;endArrow=openThin;endFill=0;endSize=12;" edge="1" parent="1" source="hUd4Ygy3gJ5FfVY44Bzg-29" target="hUd4Ygy3gJ5FfVY44Bzg-9">
          <mxGeometry relative="1" as="geometry" />
        </mxCell>
        <mxCell id="hUd4Ygy3gJ5FfVY44Bzg-29" value="" style="rhombus;fontFamily=Helvetica;fontSize=11;fontColor=default;" vertex="1" parent="1">
          <mxGeometry x="618" y="75" width="20" height="30" as="geometry" />
        </mxCell>
        <mxCell id="hUd4Ygy3gJ5FfVY44Bzg-30" style="shape=connector;rounded=0;orthogonalLoop=1;jettySize=auto;html=1;entryX=0;entryY=0.5;entryDx=0;entryDy=0;labelBackgroundColor=default;strokeColor=default;fontFamily=Helvetica;fontSize=11;fontColor=default;endArrow=openThin;endFill=0;endSize=12;exitX=0.5;exitY=1;exitDx=0;exitDy=0;" edge="1" parent="1" source="hUd4Ygy3gJ5FfVY44Bzg-31" target="hUd4Ygy3gJ5FfVY44Bzg-13">
          <mxGeometry relative="1" as="geometry" />
        </mxCell>
        <mxCell id="hUd4Ygy3gJ5FfVY44Bzg-33" value="performingDept" style="swimlane;html=1;childLayout=stackLayout;resizeParent=1;resizeParentMax=0;horizontal=0;startSize=20;horizontalStack=0;whiteSpace=wrap;fontStyle=0" vertex="1" parent="1">
          <mxGeometry x="10" y="10" width="740" height="240" as="geometry">
            <mxRectangle x="-8" y="20" width="40" height="110" as="alternateBounds" />
          </mxGeometry>
        </mxCell>
        <mxCell id="hUd4Ygy3gJ5FfVY44Bzg-35" value="Acctg Department" style="swimlane;html=1;startSize=20;horizontal=0;fontStyle=0" vertex="1" parent="hUd4Ygy3gJ5FfVY44Bzg-33">
          <mxGeometry x="20" width="720" height="140" as="geometry">
            <mxRectangle x="20" width="778" height="30" as="alternateBounds" />
          </mxGeometry>
        </mxCell>
        <mxCell id="hUd4Ygy3gJ5FfVY44Bzg-34" value="Order Department" style="swimlane;html=1;startSize=20;horizontal=0;fontStyle=0" vertex="1" parent="hUd4Ygy3gJ5FfVY44Bzg-33">
          <mxGeometry x="20" y="140" width="720" height="100" as="geometry" />
        </mxCell>
        <mxCell id="hUd4Ygy3gJ5FfVY44Bzg-40" value="«external»" style="swimlane;html=1;childLayout=stackLayout;resizeParent=1;resizeParentMax=0;horizontal=0;startSize=20;horizontalStack=0;whiteSpace=wrap;fontStyle=0" vertex="1" parent="1">
          <mxGeometry x="10" y="250" width="740" height="80" as="geometry" />
        </mxCell>
        <mxCell id="hUd4Ygy3gJ5FfVY44Bzg-41" value="Customer" style="swimlane;html=1;startSize=20;horizontal=0;fontStyle=0" vertex="1" parent="hUd4Ygy3gJ5FfVY44Bzg-40">
          <mxGeometry x="20" width="720" height="80" as="geometry" />
        </mxCell>
        <mxCell id="hUd4Ygy3gJ5FfVY44Bzg-31" value="Invoice" style="whiteSpace=wrap;html=1;fontFamily=Helvetica;fontSize=11;fontColor=default;fillColor=default;" vertex="1" parent="1">
          <mxGeometry x="229" y="234" width="60" height="30" as="geometry" />
        </mxCell>
        <mxCell id="hUd4Ygy3gJ5FfVY44Bzg-44" value="&lt;b&gt;Figure 15.70 ActivityPartitions using swimlane notation&lt;/b&gt;" style="text;html=1;align=left;verticalAlign=middle;resizable=0;points=[];autosize=1;strokeColor=none;fillColor=none;fontSize=11;fontFamily=Helvetica;fontColor=default;" vertex="1" parent="1">
          <mxGeometry x="10" y="330" width="310" height="30" as="geometry" />
        </mxCell>
      </root>
    </mxGraphModel>
  </diagram>
  <diagram name="15.71" id="e_cNmfLGgHx5ITFm6Vg9">
    <mxGraphModel dx="880" dy="545" grid="1" gridSize="10" guides="1" tooltips="1" connect="1" arrows="1" fold="1" page="1" pageScale="1" pageWidth="1169" pageHeight="827" math="0" shadow="0">
      <root>
        <mxCell id="JImOsUwbTS6VwjbgirGN-0" />
        <mxCell id="JImOsUwbTS6VwjbgirGN-1" parent="JImOsUwbTS6VwjbgirGN-0" />
        <mxCell id="JImOsUwbTS6VwjbgirGN-2" style="edgeStyle=orthogonalEdgeStyle;shape=connector;rounded=0;orthogonalLoop=1;jettySize=auto;html=1;entryX=0;entryY=0.5;entryDx=0;entryDy=0;labelBackgroundColor=default;strokeColor=default;fontFamily=Helvetica;fontSize=11;fontColor=default;endArrow=openThin;endFill=0;endSize=12;" edge="1" parent="JImOsUwbTS6VwjbgirGN-1" source="JImOsUwbTS6VwjbgirGN-3" target="JImOsUwbTS6VwjbgirGN-27">
          <mxGeometry relative="1" as="geometry" />
        </mxCell>
        <mxCell id="JImOsUwbTS6VwjbgirGN-3" value="(Order&lt;br&gt;&amp;nbsp;Department)&lt;br&gt;Receive&lt;br&gt;Order" style="html=1;align=center;verticalAlign=top;rounded=1;absoluteArcSize=1;arcSize=10;dashed=0;whiteSpace=wrap;" vertex="1" parent="JImOsUwbTS6VwjbgirGN-1">
          <mxGeometry x="38" y="45" width="90" height="70" as="geometry" />
        </mxCell>
        <mxCell id="JImOsUwbTS6VwjbgirGN-4" style="rounded=0;orthogonalLoop=1;jettySize=auto;html=1;entryX=0;entryY=0.5;entryDx=0;entryDy=0;endSize=12;endArrow=openThin;endFill=0;" edge="1" parent="JImOsUwbTS6VwjbgirGN-1" source="JImOsUwbTS6VwjbgirGN-5" target="JImOsUwbTS6VwjbgirGN-3">
          <mxGeometry relative="1" as="geometry" />
        </mxCell>
        <mxCell id="JImOsUwbTS6VwjbgirGN-5" value="" style="ellipse;fillColor=strokeColor;html=1;" vertex="1" parent="JImOsUwbTS6VwjbgirGN-1">
          <mxGeometry x="6" y="72" width="15" height="15" as="geometry" />
        </mxCell>
        <mxCell id="JImOsUwbTS6VwjbgirGN-6" value="(Order&lt;br&gt;Department)&lt;br&gt;Fill Order" style="html=1;align=center;verticalAlign=top;rounded=1;absoluteArcSize=1;arcSize=10;dashed=0;whiteSpace=wrap;" vertex="1" parent="JImOsUwbTS6VwjbgirGN-1">
          <mxGeometry x="218" y="50" width="90" height="60" as="geometry" />
        </mxCell>
        <mxCell id="JImOsUwbTS6VwjbgirGN-7" style="shape=connector;rounded=0;orthogonalLoop=1;jettySize=auto;html=1;exitX=1;exitY=0.25;exitDx=0;exitDy=0;entryX=0.4;entryY=0.325;entryDx=0;entryDy=0;entryPerimeter=0;labelBackgroundColor=default;strokeColor=default;fontFamily=Helvetica;fontSize=11;fontColor=default;endArrow=openThin;endFill=0;endSize=12;" edge="1" parent="JImOsUwbTS6VwjbgirGN-1" source="JImOsUwbTS6VwjbgirGN-8" target="JImOsUwbTS6VwjbgirGN-23">
          <mxGeometry relative="1" as="geometry" />
        </mxCell>
        <mxCell id="JImOsUwbTS6VwjbgirGN-8" value="(Order&lt;br&gt;Department)&lt;br&gt;Ship Order" style="html=1;align=center;verticalAlign=top;rounded=1;absoluteArcSize=1;arcSize=10;dashed=0;whiteSpace=wrap;" vertex="1" parent="JImOsUwbTS6VwjbgirGN-1">
          <mxGeometry x="387" y="50" width="90" height="60" as="geometry" />
        </mxCell>
        <mxCell id="JImOsUwbTS6VwjbgirGN-9" style="shape=connector;rounded=0;orthogonalLoop=1;jettySize=auto;html=1;entryX=0.5;entryY=0;entryDx=0;entryDy=0;labelBackgroundColor=default;strokeColor=default;fontFamily=Helvetica;fontSize=11;fontColor=default;endArrow=openThin;endFill=0;endSize=12;exitX=0.5;exitY=1;exitDx=0;exitDy=0;" edge="1" parent="JImOsUwbTS6VwjbgirGN-1" source="JImOsUwbTS6VwjbgirGN-10" target="JImOsUwbTS6VwjbgirGN-17">
          <mxGeometry relative="1" as="geometry" />
        </mxCell>
        <mxCell id="JImOsUwbTS6VwjbgirGN-10" value="(Order&lt;br&gt;Department)&lt;br&gt;Close Order" style="html=1;align=center;verticalAlign=top;rounded=1;absoluteArcSize=1;arcSize=10;dashed=0;whiteSpace=wrap;" vertex="1" parent="JImOsUwbTS6VwjbgirGN-1">
          <mxGeometry x="620" y="60" width="90" height="60" as="geometry" />
        </mxCell>
        <mxCell id="JImOsUwbTS6VwjbgirGN-11" style="shape=connector;rounded=0;orthogonalLoop=1;jettySize=auto;html=1;entryX=0;entryY=0.5;entryDx=0;entryDy=0;labelBackgroundColor=default;strokeColor=default;fontFamily=Helvetica;fontSize=11;fontColor=default;endArrow=openThin;endFill=0;endSize=12;exitX=0.5;exitY=1;exitDx=0;exitDy=0;" edge="1" parent="JImOsUwbTS6VwjbgirGN-1" source="JImOsUwbTS6VwjbgirGN-12" target="JImOsUwbTS6VwjbgirGN-36">
          <mxGeometry relative="1" as="geometry" />
        </mxCell>
        <mxCell id="JImOsUwbTS6VwjbgirGN-12" value="(Accounting&lt;br&gt;Department)&lt;br&gt;Send Invoice" style="html=1;align=center;verticalAlign=top;rounded=1;absoluteArcSize=1;arcSize=10;dashed=0;whiteSpace=wrap;" vertex="1" parent="JImOsUwbTS6VwjbgirGN-1">
          <mxGeometry x="83" y="180" width="90" height="60" as="geometry" />
        </mxCell>
        <mxCell id="JImOsUwbTS6VwjbgirGN-13" style="shape=connector;rounded=0;orthogonalLoop=1;jettySize=auto;html=1;entryX=0;entryY=0.5;entryDx=0;entryDy=0;labelBackgroundColor=default;strokeColor=default;fontFamily=Helvetica;fontSize=11;fontColor=default;endArrow=openThin;endFill=0;endSize=12;exitX=1;exitY=0.5;exitDx=0;exitDy=0;" edge="1" parent="JImOsUwbTS6VwjbgirGN-1" source="JImOsUwbTS6VwjbgirGN-14" target="JImOsUwbTS6VwjbgirGN-16">
          <mxGeometry relative="1" as="geometry" />
        </mxCell>
        <mxCell id="JImOsUwbTS6VwjbgirGN-14" value="«external»&lt;br&gt;(Customer)&lt;br&gt;Make&lt;br&gt;Payment" style="html=1;align=center;verticalAlign=top;rounded=1;absoluteArcSize=1;arcSize=10;dashed=0;whiteSpace=wrap;" vertex="1" parent="JImOsUwbTS6VwjbgirGN-1">
          <mxGeometry x="210" y="170" width="80" height="70" as="geometry" />
        </mxCell>
        <mxCell id="JImOsUwbTS6VwjbgirGN-15" style="edgeStyle=orthogonalEdgeStyle;shape=connector;rounded=0;orthogonalLoop=1;jettySize=auto;html=1;entryX=0;entryY=0.763;entryDx=0;entryDy=0;entryPerimeter=0;labelBackgroundColor=default;strokeColor=default;fontFamily=Helvetica;fontSize=11;fontColor=default;endArrow=openThin;endFill=0;endSize=12;exitX=1;exitY=0.5;exitDx=0;exitDy=0;" edge="1" parent="JImOsUwbTS6VwjbgirGN-1" source="JImOsUwbTS6VwjbgirGN-16">
          <mxGeometry relative="1" as="geometry">
            <Array as="points">
              <mxPoint x="498" y="205" />
              <mxPoint x="498" y="100" />
            </Array>
            <mxPoint x="458" y="199" as="sourcePoint" />
            <mxPoint x="518" y="100.03999999999996" as="targetPoint" />
          </mxGeometry>
        </mxCell>
        <mxCell id="JImOsUwbTS6VwjbgirGN-16" value="(Accounting&lt;br&gt;Department)&lt;br&gt;Accept&lt;br&gt;Payment" style="html=1;align=center;verticalAlign=top;rounded=1;absoluteArcSize=1;arcSize=10;dashed=0;whiteSpace=wrap;" vertex="1" parent="JImOsUwbTS6VwjbgirGN-1">
          <mxGeometry x="360" y="170" width="90" height="70" as="geometry" />
        </mxCell>
        <mxCell id="JImOsUwbTS6VwjbgirGN-17" value="" style="ellipse;html=1;shape=endState;fillColor=strokeColor;fontFamily=Helvetica;fontSize=11;fontColor=default;" vertex="1" parent="JImOsUwbTS6VwjbgirGN-1">
          <mxGeometry x="655" y="150" width="20" height="20" as="geometry" />
        </mxCell>
        <mxCell id="JImOsUwbTS6VwjbgirGN-18" style="edgeStyle=orthogonalEdgeStyle;shape=connector;rounded=0;orthogonalLoop=1;jettySize=auto;html=1;labelBackgroundColor=default;strokeColor=default;fontFamily=Helvetica;fontSize=11;fontColor=default;endArrow=openThin;endFill=0;endSize=12;exitX=1;exitY=0.5;exitDx=0;exitDy=0;" edge="1" parent="JImOsUwbTS6VwjbgirGN-1" source="JImOsUwbTS6VwjbgirGN-6" target="JImOsUwbTS6VwjbgirGN-21">
          <mxGeometry relative="1" as="geometry" />
        </mxCell>
        <mxCell id="JImOsUwbTS6VwjbgirGN-19" style="shape=connector;rounded=0;orthogonalLoop=1;jettySize=auto;html=1;entryX=0;entryY=0.25;entryDx=0;entryDy=0;labelBackgroundColor=default;strokeColor=default;fontFamily=Helvetica;fontSize=11;fontColor=default;endArrow=openThin;endFill=0;endSize=12;exitX=1;exitY=0.2;exitDx=0;exitDy=0;exitPerimeter=0;" edge="1" parent="JImOsUwbTS6VwjbgirGN-1" target="JImOsUwbTS6VwjbgirGN-8" source="JImOsUwbTS6VwjbgirGN-21">
          <mxGeometry relative="1" as="geometry">
            <mxPoint x="353" y="70" as="sourcePoint" />
            <mxPoint x="428" y="70" as="targetPoint" />
          </mxGeometry>
        </mxCell>
        <mxCell id="JImOsUwbTS6VwjbgirGN-20" style="edgeStyle=orthogonalEdgeStyle;shape=connector;rounded=0;orthogonalLoop=1;jettySize=auto;html=1;entryX=0;entryY=0.5;entryDx=0;entryDy=0;labelBackgroundColor=default;strokeColor=default;fontFamily=Helvetica;fontSize=11;fontColor=default;endArrow=openThin;endFill=0;endSize=12;" edge="1" parent="JImOsUwbTS6VwjbgirGN-1" source="JImOsUwbTS6VwjbgirGN-21" target="JImOsUwbTS6VwjbgirGN-12">
          <mxGeometry relative="1" as="geometry">
            <Array as="points">
              <mxPoint x="368" y="100" />
              <mxPoint x="368" y="150" />
              <mxPoint x="50" y="150" />
              <mxPoint x="50" y="210" />
            </Array>
          </mxGeometry>
        </mxCell>
        <mxCell id="JImOsUwbTS6VwjbgirGN-21" value="" style="html=1;points=[];perimeter=orthogonalPerimeter;fillColor=strokeColor;fontFamily=Helvetica;fontSize=11;fontColor=default;" vertex="1" parent="JImOsUwbTS6VwjbgirGN-1">
          <mxGeometry x="348" y="55" width="5" height="50" as="geometry" />
        </mxCell>
        <mxCell id="JImOsUwbTS6VwjbgirGN-22" style="edgeStyle=orthogonalEdgeStyle;shape=connector;rounded=0;orthogonalLoop=1;jettySize=auto;html=1;entryX=0;entryY=0.5;entryDx=0;entryDy=0;labelBackgroundColor=default;strokeColor=default;fontFamily=Helvetica;fontSize=11;fontColor=default;endArrow=openThin;endFill=0;endSize=12;" edge="1" parent="JImOsUwbTS6VwjbgirGN-1" source="JImOsUwbTS6VwjbgirGN-23" target="JImOsUwbTS6VwjbgirGN-29">
          <mxGeometry relative="1" as="geometry" />
        </mxCell>
        <mxCell id="JImOsUwbTS6VwjbgirGN-23" value="" style="html=1;points=[];perimeter=orthogonalPerimeter;fillColor=strokeColor;fontFamily=Helvetica;fontSize=11;fontColor=default;" vertex="1" parent="JImOsUwbTS6VwjbgirGN-1">
          <mxGeometry x="518" y="60" width="5" height="60" as="geometry" />
        </mxCell>
        <mxCell id="JImOsUwbTS6VwjbgirGN-24" style="edgeStyle=orthogonalEdgeStyle;shape=connector;rounded=0;orthogonalLoop=1;jettySize=auto;html=1;entryX=0;entryY=0.5;entryDx=0;entryDy=0;labelBackgroundColor=default;strokeColor=default;fontFamily=Helvetica;fontSize=11;fontColor=default;endArrow=openThin;endFill=0;endSize=12;" edge="1" parent="JImOsUwbTS6VwjbgirGN-1" source="JImOsUwbTS6VwjbgirGN-27" target="JImOsUwbTS6VwjbgirGN-6">
          <mxGeometry relative="1" as="geometry" />
        </mxCell>
        <mxCell id="JImOsUwbTS6VwjbgirGN-25" value="[order&lt;br&gt;&lt;div style=&quot;&quot;&gt;accepted]&lt;/div&gt;" style="edgeLabel;html=1;align=left;verticalAlign=middle;resizable=0;points=[];fontSize=11;fontFamily=Helvetica;fontColor=default;labelBackgroundColor=none;" vertex="1" connectable="0" parent="JImOsUwbTS6VwjbgirGN-24">
          <mxGeometry x="-0.3333" y="-3" relative="1" as="geometry">
            <mxPoint x="-20" y="20" as="offset" />
          </mxGeometry>
        </mxCell>
        <mxCell id="JImOsUwbTS6VwjbgirGN-26" style="edgeStyle=orthogonalEdgeStyle;shape=connector;rounded=0;orthogonalLoop=1;jettySize=auto;html=1;entryX=0.5;entryY=0;entryDx=0;entryDy=0;labelBackgroundColor=default;strokeColor=default;fontFamily=Helvetica;fontSize=11;fontColor=default;endArrow=openThin;endFill=0;endSize=12;" edge="1" parent="JImOsUwbTS6VwjbgirGN-1" source="JImOsUwbTS6VwjbgirGN-27" target="JImOsUwbTS6VwjbgirGN-29">
          <mxGeometry relative="1" as="geometry">
            <Array as="points">
              <mxPoint x="158" y="20" />
              <mxPoint x="578" y="20" />
            </Array>
          </mxGeometry>
        </mxCell>
        <mxCell id="JImOsUwbTS6VwjbgirGN-27" value="" style="rhombus;fontFamily=Helvetica;fontSize=11;fontColor=default;" vertex="1" parent="JImOsUwbTS6VwjbgirGN-1">
          <mxGeometry x="148" y="65" width="20" height="30" as="geometry" />
        </mxCell>
        <mxCell id="JImOsUwbTS6VwjbgirGN-28" style="edgeStyle=orthogonalEdgeStyle;shape=connector;rounded=0;orthogonalLoop=1;jettySize=auto;html=1;exitX=1;exitY=0.5;exitDx=0;exitDy=0;labelBackgroundColor=default;strokeColor=default;fontFamily=Helvetica;fontSize=11;fontColor=default;endArrow=openThin;endFill=0;endSize=12;" edge="1" parent="JImOsUwbTS6VwjbgirGN-1" source="JImOsUwbTS6VwjbgirGN-29" target="JImOsUwbTS6VwjbgirGN-10">
          <mxGeometry relative="1" as="geometry" />
        </mxCell>
        <mxCell id="JImOsUwbTS6VwjbgirGN-29" value="" style="rhombus;fontFamily=Helvetica;fontSize=11;fontColor=default;" vertex="1" parent="JImOsUwbTS6VwjbgirGN-1">
          <mxGeometry x="568" y="75" width="20" height="30" as="geometry" />
        </mxCell>
        <mxCell id="JImOsUwbTS6VwjbgirGN-30" style="shape=connector;rounded=0;orthogonalLoop=1;jettySize=auto;html=1;entryX=0.5;entryY=1;entryDx=0;entryDy=0;labelBackgroundColor=default;strokeColor=default;fontFamily=Helvetica;fontSize=11;fontColor=default;endArrow=openThin;endFill=0;endSize=12;exitX=1;exitY=0.5;exitDx=0;exitDy=0;" edge="1" parent="JImOsUwbTS6VwjbgirGN-1" source="JImOsUwbTS6VwjbgirGN-36" target="JImOsUwbTS6VwjbgirGN-14">
          <mxGeometry relative="1" as="geometry" />
        </mxCell>
        <mxCell id="JImOsUwbTS6VwjbgirGN-36" value="Invoice" style="whiteSpace=wrap;html=1;fontFamily=Helvetica;fontSize=11;fontColor=default;fillColor=default;" vertex="1" parent="JImOsUwbTS6VwjbgirGN-1">
          <mxGeometry x="150" y="265" width="60" height="30" as="geometry" />
        </mxCell>
        <mxCell id="JImOsUwbTS6VwjbgirGN-37" value="&lt;b&gt;Figure 15.71 ActivityPartitions using annotation&lt;/b&gt;" style="text;html=1;align=left;verticalAlign=middle;resizable=0;points=[];autosize=1;strokeColor=none;fillColor=none;fontSize=11;fontFamily=Helvetica;fontColor=default;" vertex="1" parent="JImOsUwbTS6VwjbgirGN-1">
          <mxGeometry y="295" width="270" height="30" as="geometry" />
        </mxCell>
      </root>
    </mxGraphModel>
  </diagram>
  <diagram name="15.72" id="KM6afho4AWbt-7rN2OIh">
    <mxGraphModel dx="880" dy="545" grid="1" gridSize="10" guides="1" tooltips="1" connect="1" arrows="1" fold="1" page="1" pageScale="1" pageWidth="1169" pageHeight="827" math="0" shadow="0">
      <root>
        <mxCell id="6y-5-J0FyS7-VIhUKz0Z-0" />
        <mxCell id="6y-5-J0FyS7-VIhUKz0Z-1" parent="6y-5-J0FyS7-VIhUKz0Z-0" />
        <mxCell id="6y-5-J0FyS7-VIhUKz0Z-2" style="edgeStyle=orthogonalEdgeStyle;shape=connector;rounded=0;orthogonalLoop=1;jettySize=auto;html=1;entryX=0;entryY=0.5;entryDx=0;entryDy=0;labelBackgroundColor=default;strokeColor=default;fontFamily=Helvetica;fontSize=11;fontColor=default;endArrow=openThin;endFill=0;endSize=12;" edge="1" parent="6y-5-J0FyS7-VIhUKz0Z-1" source="6y-5-J0FyS7-VIhUKz0Z-3" target="6y-5-J0FyS7-VIhUKz0Z-27">
          <mxGeometry relative="1" as="geometry" />
        </mxCell>
        <mxCell id="6y-5-J0FyS7-VIhUKz0Z-3" value="Receive&lt;br&gt;Order" style="html=1;align=center;verticalAlign=top;rounded=1;absoluteArcSize=1;arcSize=10;dashed=0;whiteSpace=wrap;" vertex="1" parent="6y-5-J0FyS7-VIhUKz0Z-1">
          <mxGeometry x="88" y="110" width="70" height="40" as="geometry" />
        </mxCell>
        <mxCell id="6y-5-J0FyS7-VIhUKz0Z-4" style="rounded=0;orthogonalLoop=1;jettySize=auto;html=1;entryX=0;entryY=0.5;entryDx=0;entryDy=0;endSize=12;endArrow=openThin;endFill=0;" edge="1" parent="6y-5-J0FyS7-VIhUKz0Z-1" source="6y-5-J0FyS7-VIhUKz0Z-5" target="6y-5-J0FyS7-VIhUKz0Z-3">
          <mxGeometry relative="1" as="geometry" />
        </mxCell>
        <mxCell id="6y-5-J0FyS7-VIhUKz0Z-5" value="" style="ellipse;fillColor=strokeColor;html=1;" vertex="1" parent="6y-5-J0FyS7-VIhUKz0Z-1">
          <mxGeometry x="46" y="122" width="15" height="15" as="geometry" />
        </mxCell>
        <mxCell id="6y-5-J0FyS7-VIhUKz0Z-6" value="Fill&lt;br&gt;Order" style="html=1;align=center;verticalAlign=top;rounded=1;absoluteArcSize=1;arcSize=10;dashed=0;whiteSpace=wrap;" vertex="1" parent="6y-5-J0FyS7-VIhUKz0Z-1">
          <mxGeometry x="278" y="110" width="50" height="40" as="geometry" />
        </mxCell>
        <mxCell id="6y-5-J0FyS7-VIhUKz0Z-7" style="shape=connector;rounded=0;orthogonalLoop=1;jettySize=auto;html=1;exitX=1;exitY=0.5;exitDx=0;exitDy=0;entryX=0.4;entryY=0.325;entryDx=0;entryDy=0;entryPerimeter=0;labelBackgroundColor=default;strokeColor=default;fontFamily=Helvetica;fontSize=11;fontColor=default;endArrow=openThin;endFill=0;endSize=12;" edge="1" parent="6y-5-J0FyS7-VIhUKz0Z-1" source="6y-5-J0FyS7-VIhUKz0Z-8" target="6y-5-J0FyS7-VIhUKz0Z-23">
          <mxGeometry relative="1" as="geometry" />
        </mxCell>
        <mxCell id="6y-5-J0FyS7-VIhUKz0Z-8" value="Ship&lt;br&gt;Order" style="html=1;align=center;verticalAlign=top;rounded=1;absoluteArcSize=1;arcSize=10;dashed=0;whiteSpace=wrap;" vertex="1" parent="6y-5-J0FyS7-VIhUKz0Z-1">
          <mxGeometry x="467" y="105" width="50" height="40" as="geometry" />
        </mxCell>
        <mxCell id="6y-5-J0FyS7-VIhUKz0Z-9" style="shape=connector;rounded=0;orthogonalLoop=1;jettySize=auto;html=1;entryX=0.5;entryY=0;entryDx=0;entryDy=0;labelBackgroundColor=default;strokeColor=default;fontFamily=Helvetica;fontSize=11;fontColor=default;endArrow=openThin;endFill=0;endSize=12;exitX=0.5;exitY=1;exitDx=0;exitDy=0;" edge="1" parent="6y-5-J0FyS7-VIhUKz0Z-1" source="6y-5-J0FyS7-VIhUKz0Z-10" target="6y-5-J0FyS7-VIhUKz0Z-17">
          <mxGeometry relative="1" as="geometry" />
        </mxCell>
        <mxCell id="6y-5-J0FyS7-VIhUKz0Z-10" value="(Order&lt;br&gt;Department)&lt;br&gt;Close Order" style="html=1;align=center;verticalAlign=top;rounded=1;absoluteArcSize=1;arcSize=10;dashed=0;whiteSpace=wrap;" vertex="1" parent="6y-5-J0FyS7-VIhUKz0Z-1">
          <mxGeometry x="660" y="110" width="90" height="60" as="geometry" />
        </mxCell>
        <mxCell id="6y-5-J0FyS7-VIhUKz0Z-11" style="shape=connector;rounded=0;orthogonalLoop=1;jettySize=auto;html=1;entryX=0;entryY=0.5;entryDx=0;entryDy=0;labelBackgroundColor=default;strokeColor=default;fontFamily=Helvetica;fontSize=11;fontColor=default;endArrow=openThin;endFill=0;endSize=12;exitX=0.5;exitY=1;exitDx=0;exitDy=0;" edge="1" parent="6y-5-J0FyS7-VIhUKz0Z-1" source="6y-5-J0FyS7-VIhUKz0Z-12" target="6y-5-J0FyS7-VIhUKz0Z-31">
          <mxGeometry relative="1" as="geometry" />
        </mxCell>
        <mxCell id="6y-5-J0FyS7-VIhUKz0Z-12" value="Send&lt;br&gt;Invoice" style="html=1;align=center;verticalAlign=top;rounded=1;absoluteArcSize=1;arcSize=10;dashed=0;whiteSpace=wrap;" vertex="1" parent="6y-5-J0FyS7-VIhUKz0Z-1">
          <mxGeometry x="138" y="240" width="60" height="40" as="geometry" />
        </mxCell>
        <mxCell id="6y-5-J0FyS7-VIhUKz0Z-13" style="shape=connector;rounded=0;orthogonalLoop=1;jettySize=auto;html=1;entryX=0;entryY=0.5;entryDx=0;entryDy=0;labelBackgroundColor=default;strokeColor=default;fontFamily=Helvetica;fontSize=11;fontColor=default;endArrow=openThin;endFill=0;endSize=12;exitX=1;exitY=0.5;exitDx=0;exitDy=0;" edge="1" parent="6y-5-J0FyS7-VIhUKz0Z-1" source="6y-5-J0FyS7-VIhUKz0Z-14" target="6y-5-J0FyS7-VIhUKz0Z-16">
          <mxGeometry relative="1" as="geometry" />
        </mxCell>
        <mxCell id="6y-5-J0FyS7-VIhUKz0Z-14" value="«external»&lt;br&gt;(Customer)&lt;br&gt;Make&lt;br&gt;Payment" style="html=1;align=center;verticalAlign=top;rounded=1;absoluteArcSize=1;arcSize=10;dashed=0;whiteSpace=wrap;" vertex="1" parent="6y-5-J0FyS7-VIhUKz0Z-1">
          <mxGeometry x="271" y="220" width="80" height="70" as="geometry" />
        </mxCell>
        <mxCell id="6y-5-J0FyS7-VIhUKz0Z-15" style="shape=connector;rounded=0;orthogonalLoop=1;jettySize=auto;html=1;entryX=0;entryY=0.733;entryDx=0;entryDy=0;entryPerimeter=0;labelBackgroundColor=default;strokeColor=default;fontFamily=Helvetica;fontSize=11;fontColor=default;endArrow=openThin;endFill=0;endSize=12;exitX=1;exitY=0.5;exitDx=0;exitDy=0;" edge="1" parent="6y-5-J0FyS7-VIhUKz0Z-1" source="6y-5-J0FyS7-VIhUKz0Z-16" target="6y-5-J0FyS7-VIhUKz0Z-23">
          <mxGeometry relative="1" as="geometry">
            <mxPoint x="498" y="249" as="sourcePoint" />
            <mxPoint x="558" y="150.03999999999996" as="targetPoint" />
          </mxGeometry>
        </mxCell>
        <mxCell id="6y-5-J0FyS7-VIhUKz0Z-16" value="(Accounting&lt;br&gt;Department)&lt;br&gt;Accept&lt;br&gt;Payment" style="html=1;align=center;verticalAlign=top;rounded=1;absoluteArcSize=1;arcSize=10;dashed=0;whiteSpace=wrap;" vertex="1" parent="6y-5-J0FyS7-VIhUKz0Z-1">
          <mxGeometry x="450" y="220" width="90" height="70" as="geometry" />
        </mxCell>
        <mxCell id="6y-5-J0FyS7-VIhUKz0Z-17" value="" style="ellipse;html=1;shape=endState;fillColor=strokeColor;fontFamily=Helvetica;fontSize=11;fontColor=default;" vertex="1" parent="6y-5-J0FyS7-VIhUKz0Z-1">
          <mxGeometry x="695" y="200" width="20" height="20" as="geometry" />
        </mxCell>
        <mxCell id="6y-5-J0FyS7-VIhUKz0Z-18" style="edgeStyle=orthogonalEdgeStyle;shape=connector;rounded=0;orthogonalLoop=1;jettySize=auto;html=1;labelBackgroundColor=default;strokeColor=default;fontFamily=Helvetica;fontSize=11;fontColor=default;endArrow=openThin;endFill=0;endSize=12;exitX=1;exitY=0.5;exitDx=0;exitDy=0;" edge="1" parent="6y-5-J0FyS7-VIhUKz0Z-1" source="6y-5-J0FyS7-VIhUKz0Z-6" target="6y-5-J0FyS7-VIhUKz0Z-21">
          <mxGeometry relative="1" as="geometry" />
        </mxCell>
        <mxCell id="6y-5-J0FyS7-VIhUKz0Z-19" style="shape=connector;rounded=0;orthogonalLoop=1;jettySize=auto;html=1;entryX=0;entryY=0.25;entryDx=0;entryDy=0;labelBackgroundColor=default;strokeColor=default;fontFamily=Helvetica;fontSize=11;fontColor=default;endArrow=openThin;endFill=0;endSize=12;exitX=1;exitY=0.2;exitDx=0;exitDy=0;exitPerimeter=0;" edge="1" parent="6y-5-J0FyS7-VIhUKz0Z-1" source="6y-5-J0FyS7-VIhUKz0Z-21" target="6y-5-J0FyS7-VIhUKz0Z-8">
          <mxGeometry relative="1" as="geometry">
            <mxPoint x="393" y="120" as="sourcePoint" />
            <mxPoint x="468" y="120" as="targetPoint" />
          </mxGeometry>
        </mxCell>
        <mxCell id="6y-5-J0FyS7-VIhUKz0Z-20" style="edgeStyle=orthogonalEdgeStyle;shape=connector;rounded=0;orthogonalLoop=1;jettySize=auto;html=1;entryX=0;entryY=0.5;entryDx=0;entryDy=0;labelBackgroundColor=default;strokeColor=default;fontFamily=Helvetica;fontSize=11;fontColor=default;endArrow=openThin;endFill=0;endSize=12;" edge="1" parent="6y-5-J0FyS7-VIhUKz0Z-1" source="6y-5-J0FyS7-VIhUKz0Z-21" target="6y-5-J0FyS7-VIhUKz0Z-12">
          <mxGeometry relative="1" as="geometry">
            <Array as="points">
              <mxPoint x="408" y="150" />
              <mxPoint x="408" y="200" />
              <mxPoint x="90" y="200" />
              <mxPoint x="90" y="260" />
            </Array>
          </mxGeometry>
        </mxCell>
        <mxCell id="6y-5-J0FyS7-VIhUKz0Z-21" value="" style="html=1;points=[];perimeter=orthogonalPerimeter;fillColor=strokeColor;fontFamily=Helvetica;fontSize=11;fontColor=default;" vertex="1" parent="6y-5-J0FyS7-VIhUKz0Z-1">
          <mxGeometry x="388" y="105" width="5" height="50" as="geometry" />
        </mxCell>
        <mxCell id="6y-5-J0FyS7-VIhUKz0Z-22" style="edgeStyle=orthogonalEdgeStyle;shape=connector;rounded=0;orthogonalLoop=1;jettySize=auto;html=1;entryX=0;entryY=0.5;entryDx=0;entryDy=0;labelBackgroundColor=default;strokeColor=default;fontFamily=Helvetica;fontSize=11;fontColor=default;endArrow=openThin;endFill=0;endSize=12;" edge="1" parent="6y-5-J0FyS7-VIhUKz0Z-1" source="6y-5-J0FyS7-VIhUKz0Z-23" target="6y-5-J0FyS7-VIhUKz0Z-29">
          <mxGeometry relative="1" as="geometry" />
        </mxCell>
        <mxCell id="6y-5-J0FyS7-VIhUKz0Z-23" value="" style="html=1;points=[];perimeter=orthogonalPerimeter;fillColor=strokeColor;fontFamily=Helvetica;fontSize=11;fontColor=default;" vertex="1" parent="6y-5-J0FyS7-VIhUKz0Z-1">
          <mxGeometry x="578" y="110" width="5" height="60" as="geometry" />
        </mxCell>
        <mxCell id="6y-5-J0FyS7-VIhUKz0Z-24" style="edgeStyle=orthogonalEdgeStyle;shape=connector;rounded=0;orthogonalLoop=1;jettySize=auto;html=1;entryX=0;entryY=0.5;entryDx=0;entryDy=0;labelBackgroundColor=default;strokeColor=default;fontFamily=Helvetica;fontSize=11;fontColor=default;endArrow=openThin;endFill=0;endSize=12;" edge="1" parent="6y-5-J0FyS7-VIhUKz0Z-1" source="6y-5-J0FyS7-VIhUKz0Z-27" target="6y-5-J0FyS7-VIhUKz0Z-6">
          <mxGeometry relative="1" as="geometry" />
        </mxCell>
        <mxCell id="6y-5-J0FyS7-VIhUKz0Z-25" value="[order&lt;br&gt;&lt;div style=&quot;&quot;&gt;accepted]&lt;/div&gt;" style="edgeLabel;html=1;align=left;verticalAlign=middle;resizable=0;points=[];fontSize=11;fontFamily=Helvetica;fontColor=default;labelBackgroundColor=none;" vertex="1" connectable="0" parent="6y-5-J0FyS7-VIhUKz0Z-24">
          <mxGeometry x="-0.3333" y="-3" relative="1" as="geometry">
            <mxPoint x="-20" y="20" as="offset" />
          </mxGeometry>
        </mxCell>
        <mxCell id="6y-5-J0FyS7-VIhUKz0Z-26" style="edgeStyle=orthogonalEdgeStyle;shape=connector;rounded=0;orthogonalLoop=1;jettySize=auto;html=1;entryX=0.5;entryY=0;entryDx=0;entryDy=0;labelBackgroundColor=default;strokeColor=default;fontFamily=Helvetica;fontSize=11;fontColor=default;endArrow=openThin;endFill=0;endSize=12;" edge="1" parent="6y-5-J0FyS7-VIhUKz0Z-1" source="6y-5-J0FyS7-VIhUKz0Z-27" target="6y-5-J0FyS7-VIhUKz0Z-29">
          <mxGeometry relative="1" as="geometry">
            <Array as="points">
              <mxPoint x="198" y="70" />
              <mxPoint x="618" y="70" />
            </Array>
          </mxGeometry>
        </mxCell>
        <mxCell id="6y-5-J0FyS7-VIhUKz0Z-27" value="" style="rhombus;fontFamily=Helvetica;fontSize=11;fontColor=default;" vertex="1" parent="6y-5-J0FyS7-VIhUKz0Z-1">
          <mxGeometry x="188" y="115" width="20" height="30" as="geometry" />
        </mxCell>
        <mxCell id="6y-5-J0FyS7-VIhUKz0Z-28" style="edgeStyle=orthogonalEdgeStyle;shape=connector;rounded=0;orthogonalLoop=1;jettySize=auto;html=1;exitX=1;exitY=0.5;exitDx=0;exitDy=0;labelBackgroundColor=default;strokeColor=default;fontFamily=Helvetica;fontSize=11;fontColor=default;endArrow=openThin;endFill=0;endSize=12;" edge="1" parent="6y-5-J0FyS7-VIhUKz0Z-1" source="6y-5-J0FyS7-VIhUKz0Z-29" target="6y-5-J0FyS7-VIhUKz0Z-10">
          <mxGeometry relative="1" as="geometry" />
        </mxCell>
        <mxCell id="6y-5-J0FyS7-VIhUKz0Z-29" value="" style="rhombus;fontFamily=Helvetica;fontSize=11;fontColor=default;" vertex="1" parent="6y-5-J0FyS7-VIhUKz0Z-1">
          <mxGeometry x="608" y="125" width="20" height="30" as="geometry" />
        </mxCell>
        <mxCell id="6y-5-J0FyS7-VIhUKz0Z-30" style="shape=connector;rounded=0;orthogonalLoop=1;jettySize=auto;html=1;entryX=0.5;entryY=1;entryDx=0;entryDy=0;labelBackgroundColor=default;strokeColor=default;fontFamily=Helvetica;fontSize=11;fontColor=default;endArrow=openThin;endFill=0;endSize=12;exitX=1;exitY=0.5;exitDx=0;exitDy=0;" edge="1" parent="6y-5-J0FyS7-VIhUKz0Z-1" source="6y-5-J0FyS7-VIhUKz0Z-31" target="6y-5-J0FyS7-VIhUKz0Z-14">
          <mxGeometry relative="1" as="geometry" />
        </mxCell>
        <mxCell id="6y-5-J0FyS7-VIhUKz0Z-31" value="Invoice" style="whiteSpace=wrap;html=1;fontFamily=Helvetica;fontSize=11;fontColor=default;fillColor=default;" vertex="1" parent="6y-5-J0FyS7-VIhUKz0Z-1">
          <mxGeometry x="190" y="295" width="60" height="30" as="geometry" />
        </mxCell>
        <mxCell id="6y-5-J0FyS7-VIhUKz0Z-32" value="&lt;b&gt;Figure 15.72 ActivityPartitions using multidimensional swimlane notation&lt;/b&gt;" style="text;html=1;align=left;verticalAlign=middle;resizable=0;points=[];autosize=1;strokeColor=none;fillColor=none;fontSize=11;fontFamily=Helvetica;fontColor=default;" vertex="1" parent="6y-5-J0FyS7-VIhUKz0Z-1">
          <mxGeometry x="20" y="340" width="410" height="30" as="geometry" />
        </mxCell>
      </root>
    </mxGraphModel>
  </diagram>
  <diagram id="JaJcRw9N-ZGliIb_l4Ml" name="15.73">
    <mxGraphModel dx="880" dy="545" grid="1" gridSize="10" guides="1" tooltips="1" connect="1" arrows="1" fold="1" page="1" pageScale="1" pageWidth="1169" pageHeight="827" math="0" shadow="0">
      <root>
        <mxCell id="0" />
        <mxCell id="1" parent="0" />
        <mxCell id="dBPumjCIpwUHjxhBsVTF-39" value="" style="html=1;align=center;verticalAlign=top;rounded=1;absoluteArcSize=1;arcSize=20;dashed=1;whiteSpace=wrap;fillColor=none;dashPattern=12 12;" vertex="1" parent="1">
          <mxGeometry x="50" y="10" width="390" height="169" as="geometry" />
        </mxCell>
        <mxCell id="dBPumjCIpwUHjxhBsVTF-1" style="edgeStyle=orthogonalEdgeStyle;shape=connector;rounded=0;orthogonalLoop=1;jettySize=auto;html=1;entryX=0;entryY=0.5;entryDx=0;entryDy=0;labelBackgroundColor=default;strokeColor=default;fontFamily=Helvetica;fontSize=11;fontColor=default;endArrow=openThin;endFill=0;endSize=12;" edge="1" parent="1" source="dBPumjCIpwUHjxhBsVTF-2" target="dBPumjCIpwUHjxhBsVTF-26">
          <mxGeometry relative="1" as="geometry" />
        </mxCell>
        <mxCell id="dBPumjCIpwUHjxhBsVTF-2" value="Receive&lt;br&gt;Order" style="html=1;align=center;verticalAlign=top;rounded=1;absoluteArcSize=1;arcSize=10;dashed=0;whiteSpace=wrap;" vertex="1" parent="1">
          <mxGeometry x="68" y="120" width="70" height="40" as="geometry" />
        </mxCell>
        <mxCell id="dBPumjCIpwUHjxhBsVTF-3" style="rounded=0;orthogonalLoop=1;jettySize=auto;html=1;entryX=0;entryY=0.5;entryDx=0;entryDy=0;endSize=12;endArrow=openThin;endFill=0;" edge="1" parent="1" source="dBPumjCIpwUHjxhBsVTF-4" target="dBPumjCIpwUHjxhBsVTF-2">
          <mxGeometry relative="1" as="geometry" />
        </mxCell>
        <mxCell id="dBPumjCIpwUHjxhBsVTF-4" value="" style="ellipse;fillColor=strokeColor;html=1;" vertex="1" parent="1">
          <mxGeometry x="26" y="132" width="15" height="15" as="geometry" />
        </mxCell>
        <mxCell id="dBPumjCIpwUHjxhBsVTF-5" value="Fill&lt;br&gt;Order" style="html=1;align=center;verticalAlign=top;rounded=1;absoluteArcSize=1;arcSize=10;dashed=0;whiteSpace=wrap;" vertex="1" parent="1">
          <mxGeometry x="258" y="120" width="50" height="40" as="geometry" />
        </mxCell>
        <mxCell id="dBPumjCIpwUHjxhBsVTF-6" style="shape=connector;rounded=0;orthogonalLoop=1;jettySize=auto;html=1;exitX=1;exitY=0.5;exitDx=0;exitDy=0;entryX=0.4;entryY=0.325;entryDx=0;entryDy=0;entryPerimeter=0;labelBackgroundColor=default;strokeColor=default;fontFamily=Helvetica;fontSize=11;fontColor=default;endArrow=openThin;endFill=0;endSize=12;" edge="1" parent="1" source="dBPumjCIpwUHjxhBsVTF-7" target="dBPumjCIpwUHjxhBsVTF-22">
          <mxGeometry relative="1" as="geometry" />
        </mxCell>
        <mxCell id="dBPumjCIpwUHjxhBsVTF-7" value="Ship&lt;br&gt;Order" style="html=1;align=center;verticalAlign=top;rounded=1;absoluteArcSize=1;arcSize=10;dashed=0;whiteSpace=wrap;" vertex="1" parent="1">
          <mxGeometry x="377" y="115" width="50" height="40" as="geometry" />
        </mxCell>
        <mxCell id="dBPumjCIpwUHjxhBsVTF-8" style="shape=connector;rounded=0;orthogonalLoop=1;jettySize=auto;html=1;entryX=0;entryY=0.5;entryDx=0;entryDy=0;labelBackgroundColor=default;strokeColor=default;fontFamily=Helvetica;fontSize=11;fontColor=default;endArrow=openThin;endFill=0;endSize=12;exitX=1;exitY=0.5;exitDx=0;exitDy=0;" edge="1" parent="1" source="dBPumjCIpwUHjxhBsVTF-9" target="dBPumjCIpwUHjxhBsVTF-16">
          <mxGeometry relative="1" as="geometry" />
        </mxCell>
        <mxCell id="dBPumjCIpwUHjxhBsVTF-9" value="Close&lt;br&gt;Order" style="html=1;align=center;verticalAlign=top;rounded=1;absoluteArcSize=1;arcSize=10;dashed=0;whiteSpace=wrap;" vertex="1" parent="1">
          <mxGeometry x="530" y="130" width="50" height="40" as="geometry" />
        </mxCell>
        <mxCell id="dBPumjCIpwUHjxhBsVTF-10" style="shape=connector;rounded=0;orthogonalLoop=1;jettySize=auto;html=1;entryX=0;entryY=0.5;entryDx=0;entryDy=0;labelBackgroundColor=default;strokeColor=default;fontFamily=Helvetica;fontSize=11;fontColor=default;endArrow=openThin;endFill=0;endSize=12;exitX=0.5;exitY=1;exitDx=0;exitDy=0;" edge="1" parent="1" source="dBPumjCIpwUHjxhBsVTF-11" target="dBPumjCIpwUHjxhBsVTF-30">
          <mxGeometry relative="1" as="geometry" />
        </mxCell>
        <mxCell id="dBPumjCIpwUHjxhBsVTF-11" value="Send&lt;br&gt;Invoice" style="html=1;align=center;verticalAlign=top;rounded=1;absoluteArcSize=1;arcSize=10;dashed=0;whiteSpace=wrap;" vertex="1" parent="1">
          <mxGeometry x="118" y="210" width="60" height="39" as="geometry" />
        </mxCell>
        <mxCell id="dBPumjCIpwUHjxhBsVTF-12" style="shape=connector;rounded=0;orthogonalLoop=1;jettySize=auto;html=1;entryX=0;entryY=0.5;entryDx=0;entryDy=0;labelBackgroundColor=default;strokeColor=default;fontFamily=Helvetica;fontSize=11;fontColor=default;endArrow=openThin;endFill=0;endSize=12;exitX=1;exitY=0.5;exitDx=0;exitDy=0;" edge="1" parent="1" source="dBPumjCIpwUHjxhBsVTF-13" target="dBPumjCIpwUHjxhBsVTF-15">
          <mxGeometry relative="1" as="geometry" />
        </mxCell>
        <mxCell id="dBPumjCIpwUHjxhBsVTF-13" value="Make&lt;br&gt;Payment" style="html=1;align=center;verticalAlign=top;rounded=1;absoluteArcSize=1;arcSize=10;dashed=0;whiteSpace=wrap;" vertex="1" parent="1">
          <mxGeometry x="216" y="210" width="70" height="39" as="geometry" />
        </mxCell>
        <mxCell id="dBPumjCIpwUHjxhBsVTF-14" style="shape=connector;rounded=0;orthogonalLoop=1;jettySize=auto;html=1;entryX=0;entryY=0.733;entryDx=0;entryDy=0;entryPerimeter=0;labelBackgroundColor=default;strokeColor=default;fontFamily=Helvetica;fontSize=11;fontColor=default;endArrow=openThin;endFill=0;endSize=12;exitX=1;exitY=0.5;exitDx=0;exitDy=0;" edge="1" parent="1" source="dBPumjCIpwUHjxhBsVTF-15" target="dBPumjCIpwUHjxhBsVTF-22">
          <mxGeometry relative="1" as="geometry">
            <mxPoint x="478" y="259" as="sourcePoint" />
            <mxPoint x="538" y="160.03999999999996" as="targetPoint" />
          </mxGeometry>
        </mxCell>
        <mxCell id="dBPumjCIpwUHjxhBsVTF-15" value="Accept&lt;br&gt;Payment" style="html=1;align=center;verticalAlign=top;rounded=1;absoluteArcSize=1;arcSize=10;dashed=0;whiteSpace=wrap;" vertex="1" parent="1">
          <mxGeometry x="320" y="210" width="70" height="39" as="geometry" />
        </mxCell>
        <mxCell id="dBPumjCIpwUHjxhBsVTF-16" value="" style="ellipse;html=1;shape=endState;fillColor=strokeColor;fontFamily=Helvetica;fontSize=11;fontColor=default;" vertex="1" parent="1">
          <mxGeometry x="605" y="140" width="20" height="20" as="geometry" />
        </mxCell>
        <mxCell id="dBPumjCIpwUHjxhBsVTF-17" style="edgeStyle=orthogonalEdgeStyle;shape=connector;rounded=0;orthogonalLoop=1;jettySize=auto;html=1;labelBackgroundColor=default;strokeColor=default;fontFamily=Helvetica;fontSize=11;fontColor=default;endArrow=openThin;endFill=0;endSize=12;exitX=1;exitY=0.5;exitDx=0;exitDy=0;" edge="1" parent="1" source="dBPumjCIpwUHjxhBsVTF-5" target="dBPumjCIpwUHjxhBsVTF-20">
          <mxGeometry relative="1" as="geometry" />
        </mxCell>
        <mxCell id="dBPumjCIpwUHjxhBsVTF-18" style="shape=connector;rounded=0;orthogonalLoop=1;jettySize=auto;html=1;entryX=0;entryY=0.25;entryDx=0;entryDy=0;labelBackgroundColor=default;strokeColor=default;fontFamily=Helvetica;fontSize=11;fontColor=default;endArrow=openThin;endFill=0;endSize=12;exitX=1;exitY=0.2;exitDx=0;exitDy=0;exitPerimeter=0;" edge="1" parent="1" source="dBPumjCIpwUHjxhBsVTF-20" target="dBPumjCIpwUHjxhBsVTF-7">
          <mxGeometry relative="1" as="geometry">
            <mxPoint x="373" y="130" as="sourcePoint" />
            <mxPoint x="448" y="130" as="targetPoint" />
          </mxGeometry>
        </mxCell>
        <mxCell id="dBPumjCIpwUHjxhBsVTF-19" style="edgeStyle=orthogonalEdgeStyle;shape=connector;rounded=0;orthogonalLoop=1;jettySize=auto;html=1;entryX=0;entryY=0.5;entryDx=0;entryDy=0;labelBackgroundColor=default;strokeColor=default;fontFamily=Helvetica;fontSize=11;fontColor=default;endArrow=openThin;endFill=0;endSize=12;" edge="1" parent="1" source="dBPumjCIpwUHjxhBsVTF-20" target="dBPumjCIpwUHjxhBsVTF-11">
          <mxGeometry relative="1" as="geometry">
            <Array as="points">
              <mxPoint x="350" y="160" />
              <mxPoint x="350" y="190" />
              <mxPoint x="90" y="190" />
              <mxPoint x="90" y="230" />
            </Array>
          </mxGeometry>
        </mxCell>
        <mxCell id="dBPumjCIpwUHjxhBsVTF-20" value="" style="html=1;points=[];perimeter=orthogonalPerimeter;fillColor=strokeColor;fontFamily=Helvetica;fontSize=11;fontColor=default;" vertex="1" parent="1">
          <mxGeometry x="338" y="115" width="5" height="50" as="geometry" />
        </mxCell>
        <mxCell id="dBPumjCIpwUHjxhBsVTF-21" style="edgeStyle=orthogonalEdgeStyle;shape=connector;rounded=0;orthogonalLoop=1;jettySize=auto;html=1;entryX=0;entryY=0.5;entryDx=0;entryDy=0;labelBackgroundColor=default;strokeColor=default;fontFamily=Helvetica;fontSize=11;fontColor=default;endArrow=openThin;endFill=0;endSize=12;" edge="1" parent="1" source="dBPumjCIpwUHjxhBsVTF-22" target="dBPumjCIpwUHjxhBsVTF-28">
          <mxGeometry relative="1" as="geometry" />
        </mxCell>
        <mxCell id="dBPumjCIpwUHjxhBsVTF-22" value="" style="html=1;points=[];perimeter=orthogonalPerimeter;fillColor=strokeColor;fontFamily=Helvetica;fontSize=11;fontColor=default;" vertex="1" parent="1">
          <mxGeometry x="448" y="120" width="5" height="60" as="geometry" />
        </mxCell>
        <mxCell id="dBPumjCIpwUHjxhBsVTF-23" style="edgeStyle=orthogonalEdgeStyle;shape=connector;rounded=0;orthogonalLoop=1;jettySize=auto;html=1;entryX=0;entryY=0.5;entryDx=0;entryDy=0;labelBackgroundColor=default;strokeColor=default;fontFamily=Helvetica;fontSize=11;fontColor=default;endArrow=openThin;endFill=0;endSize=12;" edge="1" parent="1" source="dBPumjCIpwUHjxhBsVTF-26" target="dBPumjCIpwUHjxhBsVTF-5">
          <mxGeometry relative="1" as="geometry" />
        </mxCell>
        <mxCell id="dBPumjCIpwUHjxhBsVTF-24" value="[order&lt;br&gt;&lt;div style=&quot;&quot;&gt;accepted]&lt;/div&gt;" style="edgeLabel;html=1;align=left;verticalAlign=middle;resizable=0;points=[];fontSize=11;fontFamily=Helvetica;fontColor=default;labelBackgroundColor=none;" vertex="1" connectable="0" parent="dBPumjCIpwUHjxhBsVTF-23">
          <mxGeometry x="-0.3333" y="-3" relative="1" as="geometry">
            <mxPoint x="-20" y="20" as="offset" />
          </mxGeometry>
        </mxCell>
        <mxCell id="dBPumjCIpwUHjxhBsVTF-25" style="edgeStyle=orthogonalEdgeStyle;shape=connector;rounded=0;orthogonalLoop=1;jettySize=auto;html=1;entryX=0.5;entryY=0;entryDx=0;entryDy=0;labelBackgroundColor=default;strokeColor=default;fontFamily=Helvetica;fontSize=11;fontColor=default;endArrow=openThin;endFill=0;endSize=12;" edge="1" parent="1" source="dBPumjCIpwUHjxhBsVTF-26" target="dBPumjCIpwUHjxhBsVTF-28">
          <mxGeometry relative="1" as="geometry">
            <Array as="points">
              <mxPoint x="178" y="100" />
              <mxPoint x="488" y="100" />
            </Array>
          </mxGeometry>
        </mxCell>
        <mxCell id="dBPumjCIpwUHjxhBsVTF-32" value="[order&lt;br&gt;rejected]" style="edgeLabel;html=1;align=left;verticalAlign=middle;resizable=0;points=[];labelBackgroundColor=none;" vertex="1" connectable="0" parent="dBPumjCIpwUHjxhBsVTF-25">
          <mxGeometry x="-0.9333" y="-2" relative="1" as="geometry">
            <mxPoint x="-50" y="-20" as="offset" />
          </mxGeometry>
        </mxCell>
        <mxCell id="dBPumjCIpwUHjxhBsVTF-26" value="" style="rhombus;fontFamily=Helvetica;fontSize=11;fontColor=default;" vertex="1" parent="1">
          <mxGeometry x="168" y="125" width="20" height="30" as="geometry" />
        </mxCell>
        <mxCell id="dBPumjCIpwUHjxhBsVTF-27" style="edgeStyle=orthogonalEdgeStyle;shape=connector;rounded=0;orthogonalLoop=1;jettySize=auto;html=1;exitX=1;exitY=0.5;exitDx=0;exitDy=0;labelBackgroundColor=default;strokeColor=default;fontFamily=Helvetica;fontSize=11;fontColor=default;endArrow=openThin;endFill=0;endSize=12;" edge="1" parent="1" source="dBPumjCIpwUHjxhBsVTF-28" target="dBPumjCIpwUHjxhBsVTF-9">
          <mxGeometry relative="1" as="geometry" />
        </mxCell>
        <mxCell id="dBPumjCIpwUHjxhBsVTF-28" value="" style="rhombus;fontFamily=Helvetica;fontSize=11;fontColor=default;" vertex="1" parent="1">
          <mxGeometry x="478" y="135" width="20" height="30" as="geometry" />
        </mxCell>
        <mxCell id="dBPumjCIpwUHjxhBsVTF-29" style="shape=connector;rounded=0;orthogonalLoop=1;jettySize=auto;html=1;entryX=0.5;entryY=1;entryDx=0;entryDy=0;labelBackgroundColor=default;strokeColor=default;fontFamily=Helvetica;fontSize=11;fontColor=default;endArrow=openThin;endFill=0;endSize=12;exitX=1;exitY=0.5;exitDx=0;exitDy=0;" edge="1" parent="1" source="dBPumjCIpwUHjxhBsVTF-30" target="dBPumjCIpwUHjxhBsVTF-13">
          <mxGeometry relative="1" as="geometry" />
        </mxCell>
        <mxCell id="dBPumjCIpwUHjxhBsVTF-30" value="Invoice" style="whiteSpace=wrap;html=1;fontFamily=Helvetica;fontSize=11;fontColor=default;fillColor=default;" vertex="1" parent="1">
          <mxGeometry x="170" y="265" width="60" height="29" as="geometry" />
        </mxCell>
        <mxCell id="dBPumjCIpwUHjxhBsVTF-31" value="&lt;b&gt;Figure 15.73 InterruptableActivityRegion example&lt;/b&gt;" style="text;html=1;align=left;verticalAlign=middle;resizable=0;points=[];autosize=1;strokeColor=none;fillColor=none;fontSize=11;fontFamily=Helvetica;fontColor=default;" vertex="1" parent="1">
          <mxGeometry x="26" y="294" width="280" height="30" as="geometry" />
        </mxCell>
        <mxCell id="dBPumjCIpwUHjxhBsVTF-35" style="edgeStyle=orthogonalEdgeStyle;rounded=0;orthogonalLoop=1;jettySize=auto;html=1;entryX=0.5;entryY=0;entryDx=0;entryDy=0;endArrow=openThin;endFill=0;endSize=12;" edge="1" parent="1" source="dBPumjCIpwUHjxhBsVTF-34" target="dBPumjCIpwUHjxhBsVTF-16">
          <mxGeometry relative="1" as="geometry" />
        </mxCell>
        <mxCell id="dBPumjCIpwUHjxhBsVTF-34" value="Cancel&lt;br&gt;Order" style="html=1;align=center;verticalAlign=top;rounded=1;absoluteArcSize=1;arcSize=10;dashed=0;whiteSpace=wrap;" vertex="1" parent="1">
          <mxGeometry x="492" y="25" width="60" height="40" as="geometry" />
        </mxCell>
        <mxCell id="dBPumjCIpwUHjxhBsVTF-36" value="Order&lt;br style=&quot;font-size: 12px;&quot;&gt;cancel&lt;br style=&quot;font-size: 12px;&quot;&gt;request" style="html=1;shape=mxgraph.infographic.ribbonSimple;notch1=11;notch2=0;align=center;verticalAlign=middle;fontSize=12;fontStyle=0;fillColor=#FFFFFF;flipH=0;spacingRight=0;spacingLeft=14;whiteSpace=wrap;" vertex="1" parent="1">
          <mxGeometry x="357" y="25" width="70" height="60" as="geometry" />
        </mxCell>
        <mxCell id="dBPumjCIpwUHjxhBsVTF-38" value="" style="shape=mxgraph.lean_mapping.electronic_info_flow_edge;html=1;rounded=0;" edge="1" parent="1" source="dBPumjCIpwUHjxhBsVTF-36" target="dBPumjCIpwUHjxhBsVTF-34">
          <mxGeometry width="160" relative="1" as="geometry">
            <mxPoint x="427" y="55" as="sourcePoint" />
            <mxPoint x="587" y="55" as="targetPoint" />
          </mxGeometry>
        </mxCell>
      </root>
    </mxGraphModel>
  </diagram>
</mxfile>
